# xmcd
#
# Track frame offsets:
#	150
#	6050
#	16151
#	21411
#	30957
#	46659
#	53344
#	60824
#	68637
#	79920
#	91856
#	106145
#	119432
#	126764
#	137485
#	154692
#	168255
#	179359
#	182480
#	194238
#	208150
#	211445
#
# Disc length: 2935 seconds
#
# Revision: 0
# Processed by: cddbd v1.5.2PL0 Copyright (c) Steve Scherf et al.
# Submitted via: EasyCDDAExtractor 15.2.5.1
#
DISCID=150b7516
DTITLE=andrzej korzynski - tajemnica enigmy
DYEAR=1900
DGENRE=
TTITLE0=trying to catch a fly
TTITLE1=la grabuge (pop theme)
TTITLE2=agent no. 1
TTITLE3=opetanie five
TTITLE4=saved from oblivion
TTITLE5=tajemnica enigmy
TTITLE6=w instyucie
TTITLE7=w pustyni i w puszczy
TTITLE8=the dziekanka students' hostel (II)
TTITLE9=landscapes
TTITLE10=losy ost (mid-beat theme)
TTITLE11=third part of the night czolownica
TTITLE12=diabel
TTITLE13=la grabuge (orch pop theme)
TTITLE14=rosa rosa (with arp life)
TTITLE15=bossa nova (feat. ewa wanat)
TTITLE16=the dziekanka students' hostel (I)
TTITLE17=lapanka
TTITLE18=la grabuge (orchestral theme)
TTITLE19=losy ost (mid-guitar theme)
TTITLE20=trying to catch a fly (reprise)
TTITLE21=wszystko na sprzedaz taniec
EXTD=
EXTT0=
EXTT1=
EXTT2=
EXTT3=
EXTT4=
EXTT5=
EXTT6=
EXTT7=
EXTT8=
EXTT9=
EXTT10=
EXTT11=
EXTT12=
EXTT13=
EXTT14=
EXTT15=
EXTT16=
EXTT17=
EXTT18=
EXTT19=
EXTT20=
EXTT21=
PLAYORDER=
